# xmcd
#
# Track frame offsets:
#	300
#	28014
#	65584
#	94345
#	123873
#	158204
#	189212
#	226396
#	255128
#	289020
#
# Disc length: 4250 seconds
#
# Revision: 1
# Processed by: cddbd v1.5.2PL0 Copyright (c) Steve Scherf et al.
# Submitted via: audiograbber 1.83.01
#
DISCID=7e10960a
DTITLE=Cd Pool - Cd Pool (Us July) - Cd2
DYEAR=2005
DGENRE=House
TTITLE0=Groove Injection - Made for Dancing (Original Mix)
TTITLE1=Jon Cutler and Romain Ft. Jeannie Hopper - Dejà Vu (Mr. V Sole Channel Re
TTITLE1=mix)
TTITLE2=Amit Shoham - Universal Message (Original Mix)
TTITLE3=Mod Pres. The Latin Tribe - Samba Latina (Original Mix)
TTITLE4=Jody Watley Vs. Alison Limerick - Looking for a new real Love (Lati's b
TTITLE4=lack plastic Mash-Up Mix)
TTITLE5=Dave Armstrong and Redroche - Love has Gone (Dj DLG Remix)
TTITLE6=Deepswing and Redsoul Spotlight Donna Washington - Celebrate (Original Mi
TTITLE6=x)
TTITLE7=Sol Azul - Paixao (Dj shine 'in your eye' Mix)
TTITLE8=Davidson Ospina - Latin bush EP Aha (Ospina latin flava Mix)
TTITLE9=Lake and Asher Pres. Ramsay - Sweat (Original Mix)
EXTD=crg
EXTT0=
EXTT1=
EXTT2=
EXTT3=
EXTT4=
EXTT5=
EXTT6=
EXTT7=
EXTT8=
EXTT9=
PLAYORDER=
